<svg width="18" height="18" viewBox="0 0 18 18" fill="none" xmlns="http://www.w3.org/2000/svg">
<path fill-rule="evenodd" clip-rule="evenodd" d="M5.91311 10.033C5.62272 9.85798 5.4285 9.53959 5.4285 9.17584C5.4285 8.62356 5.87622 8.17584 6.4285 8.17584H9.89694L6.07779 1.92871L2.02865 9.02757C1.08579 10.5319 1.0035 12.4879 1.99393 14.1079C3.40179 16.4106 6.43522 17.1499 8.77007 15.7609C9.65863 15.2322 10.3178 14.4713 10.7158 13.6044H6.4285C5.87622 13.6044 5.4285 13.1567 5.4285 12.6044C5.4285 12.2406 5.62273 11.9222 5.91315 11.7472C5.62273 11.5723 5.4285 11.2539 5.4285 10.8901C5.4285 10.5263 5.62272 10.208 5.91311 10.033Z" fill="#8FA1CF"/>
<path d="M6.42871 12.6045H13.5001C14.3273 12.6045 15.0001 13.1812 15.0001 13.8902C15.0001 14.5992 14.3273 15.1759 13.5001 15.1759C12.673 15.1759 12.0001 14.5992 12.0001 13.8902V13.7065" stroke="#8FA1CF" stroke-miterlimit="10" stroke-linecap="round" stroke-linejoin="round"/>
<path d="M6.42871 10.8898H13.5001C14.323 10.8898 15.0001 10.3131 15.0001 9.60407C15.0001 8.89877 14.323 8.31836 13.5001 8.31836C12.6773 8.31836 12.0001 8.89509 12.0001 9.60407V9.78775" stroke="#8FA1CF" stroke-miterlimit="10" stroke-linecap="round" stroke-linejoin="round"/>
<path d="M6.42871 9.17592H9.56157C10.2001 9.17592 10.7144 8.59759 10.7144 7.89021C10.7144 7.17804 10.1959 6.60449 9.56157 6.60449" stroke="#8FA1CF" stroke-miterlimit="10" stroke-linecap="round" stroke-linejoin="round"/>
</svg>
